<svg xmlns="http://www.w3.org/2000/svg" width="1000" height="420" viewBox="0 0 1000 420">
  <defs>
    <marker id="arrow" viewBox="0 0 10 10" refX="9" refY="5" markerWidth="7" markerHeight="7" orient="auto-start-reverse">
      <path d="M 0 0 L 10 5 L 0 10 z" fill="#333"/>
    </marker>
    <style>
      text { font-family: "Microsoft YaHei", SimSun, serif; fill: #111; }
      .state { fill: #fffefa; stroke: #6b1d14; stroke-width: 2; }
      .label { fill: #6b1d14; font-size: 13px; }
      .arrow { stroke: #333; stroke-width: 1.5; marker-end: url(#arrow); }
    </style>
  </defs>
  <rect width="100%" height="100%" fill="#fbfaf6"/>
  <text x="500" y="34" text-anchor="middle" font-size="20" font-weight="700">机票状态图</text>
  <circle cx="48" cy="220" r="10" fill="#111"/>
  <line class="arrow" x1="58" y1="220" x2="105" y2="220"/>
  <text class="label" x="90" y="205" text-anchor="middle">添加机票信息</text>
  <rect class="state" x="110" y="192" width="110" height="56" rx="14"/>
  <text x="165" y="226" text-anchor="middle" font-size="15">审核</text>
  <line class="arrow" x1="220" y1="220" x2="310" y2="220"/>
  <text class="label" x="265" y="204" text-anchor="middle">审核通过</text>
  <rect class="state" x="315" y="192" width="120" height="56" rx="14"/>
  <text x="375" y="226" text-anchor="middle" font-size="15">待销售</text>
  <line class="arrow" x1="435" y1="208" x2="540" y2="135"/>
  <text class="label" x="485" y="158" text-anchor="middle">全部售完</text>
  <rect class="state" x="545" y="100" width="120" height="56" rx="14"/>
  <text x="605" y="134" text-anchor="middle" font-size="15">售罄</text>
  <line class="arrow" x1="435" y1="232" x2="540" y2="302"/>
  <text class="label" x="482" y="286" text-anchor="middle">航班取消</text>
  <rect class="state" x="545" y="274" width="120" height="56" rx="14"/>
  <text x="605" y="308" text-anchor="middle" font-size="15">下架</text>
  <line class="arrow" x1="665" y1="128" x2="750" y2="205"/>
  <line class="arrow" x1="665" y1="302" x2="750" y2="235"/>
  <text class="label" x="715" y="168" text-anchor="middle">清空信息</text>
  <text class="label" x="715" y="288" text-anchor="middle">清空信息</text>
  <rect class="state" x="755" y="192" width="125" height="56" rx="14"/>
  <text x="817" y="226" text-anchor="middle" font-size="15">退出流通</text>
  <line class="arrow" x1="880" y1="220" x2="940" y2="220"/>
  <text class="label" x="910" y="204" text-anchor="middle">删除</text>
  <circle cx="960" cy="220" r="13" fill="none" stroke="#111" stroke-width="2"/>
  <circle cx="960" cy="220" r="8" fill="#111"/>
</svg>
